<svg width="192" height="192" viewBox="0 0 192 192" fill="none" xmlns="http://www.w3.org/2000/svg">
<path d="M49.2784 142V48.9091H110.915V65.1364H68.9602V87.3182H106.824V103.545H68.9602V142H49.2784ZM130.733 143.182C127.733 143.182 125.157 142.121 123.006 140C120.884 137.848 119.824 135.273 119.824 132.273C119.824 129.303 120.884 126.758 123.006 124.636C125.157 122.515 127.733 121.455 130.733 121.455C133.642 121.455 136.188 122.515 138.369 124.636C140.551 126.758 141.642 129.303 141.642 132.273C141.642 134.273 141.127 136.106 140.097 137.773C139.097 139.409 137.778 140.727 136.142 141.727C134.506 142.697 132.703 143.182 130.733 143.182Z" fill="#212121"/>
</svg>
